<?xml version="1.0" standalone="no"?>
<!DOCTYPE svg PUBLIC "-//W3C//DTD SVG 20010904//EN"
 "http://www.w3.org/TR/2001/REC-SVG-20010904/DTD/svg10.dtd">
<svg version="1.0" xmlns="http://www.w3.org/2000/svg"
 width="534.000000pt" height="534.000000pt" viewBox="0 0 534.000000 534.000000"
 preserveAspectRatio="xMidYMid meet">
<metadata>
Created by potrace 1.14, written by Peter Selinger 2001-2017
</metadata>
<g transform="translate(0.000000,534.000000) scale(0.100000,-0.100000)"
fill="#000000" stroke="none">
<path d="M1545 4523 c-227 -19 -472 -103 -669 -230 -430 -277 -736 -800 -807
-1376 -17 -138 -6 -423 20 -552 108 -527 441 -942 881 -1100 192 -68 444 -89
634 -51 315 62 673 256 852 463 146 167 218 336 219 513 0 69 -4 93 -22 127
-33 60 -66 83 -124 83 -60 0 -109 -21 -263 -115 -155 -94 -271 -150 -356 -171
-365 -92 -668 300 -647 840 17 447 258 839 572 932 119 35 257 20 499 -55 215
-67 296 -24 284 149 -7 94 -43 166 -124 250 -192 200 -592 323 -949 293z"/>
<path d="M4395 4449 c-96 -16 -231 -61 -406 -134 -96 -41 -204 -81 -240 -90
-132 -31 -281 -12 -485 60 -216 77 -308 73 -400 -20 -53 -53 -64 -80 -64 -164
0 -61 21 -131 70 -231 64 -134 65 -147 65 -890 0 -874 -14 -1054 -100 -1305
-24 -71 -49 -159 -54 -193 -20 -124 23 -231 113 -287 44 -27 60 -30 140 -33
158 -6 247 24 421 143 170 116 232 112 519 -35 250 -128 304 -145 466 -145
144 0 221 19 353 87 222 115 423 409 478 698 16 85 16 239 -1 315 -46 216
-201 431 -376 522 -43 22 -115 56 -159 74 -80 33 -145 83 -145 112 0 32 48 67
151 112 136 59 207 116 281 225 104 154 150 312 150 515 0 344 -160 590 -428
659 -67 17 -260 20 -349 5z m-400 -713 c63 -29 97 -66 129 -136 51 -111 43
-254 -20 -380 -97 -192 -331 -253 -451 -117 -125 142 -119 441 12 572 86 85
225 111 330 61z m-80 -1085 c83 -39 146 -123 190 -254 62 -186 0 -369 -150
-443 -48 -23 -64 -26 -129 -22 -98 5 -146 37 -195 131 -28 55 -34 78 -38 153
-8 155 35 299 117 388 61 66 130 82 205 47z"/>
</g>
</svg>
